HIERARCHY
ROOT Hips
{
	OFFSET 0.00000 0.00000 0.00000
	CHANNELS 6 Xposition Yposition Zposition Zrotation Yrotation Xrotation 
	JOINT LHipJoint
	{
		OFFSET 0 0 0
		CHANNELS 3 Zrotation Yrotation Xrotation
		JOINT LeftHip
		{
			OFFSET 1.85742 -1.74412 1.01653
			CHANNELS 3 Zrotation Yrotation Xrotation
			JOINT LeftKnee
			{
				OFFSET 2.54803 -7.00067 0.00000
				CHANNELS 3 Zrotation Yrotation Xrotation
				JOINT LeftAnkle
				{
					OFFSET 2.51202 -6.90173 0.00000
					CHANNELS 3 Zrotation Yrotation Xrotation
					JOINT LeftToe
					{
						OFFSET 0.17547 -0.48209 1.64281
						CHANNELS 3 Zrotation Yrotation Xrotation
						End Site
						{
							OFFSET 0.00000 -0.00000 0.86587
						}
					}
				}
			}
		}
	}
	JOINT RHipJoint
	{
		OFFSET 0 0 0
		CHANNELS 3 Zrotation Yrotation Xrotation
		JOINT RightHip
		{
			OFFSET -1.95533 -1.74413 1.01654
			CHANNELS 3 Zrotation Yrotation Xrotation
			JOINT RightKnee
			{
				OFFSET -2.49465 -6.85400 0.00000
				CHANNELS 3 Zrotation Yrotation Xrotation
				JOINT RightAnkle
				{
					OFFSET -2.54783 -7.00010 0.00000
					CHANNELS 3 Zrotation Yrotation Xrotation
					JOINT RightToe
					{
						OFFSET -0.18513 -0.50864 1.69288
						CHANNELS 3 Zrotation Yrotation Xrotation
						End Site
						{
							OFFSET -0.00000 -0.00000 0.89242
						}
					}
				}
			}
		}
	}
	JOINT lowerback
	{
		OFFSET 0 0 0
		CHANNELS 3 Zrotation Yrotation Xrotation
		JOINT Chest
		{
			OFFSET 0.02173 2.16290 -0.15998
			CHANNELS 3 Zrotation Yrotation Xrotation
			JOINT Chest2
			{
				OFFSET 0.00940 2.17323 -0.00467
				CHANNELS 3 Zrotation Yrotation Xrotation
				JOINT lowerneck
				{
					OFFSET 0 0 0
					CHANNELS 3 Zrotation Yrotation Xrotation
					JOINT Neck
					{
						OFFSET 0.01475 1.85823 0.31113
						CHANNELS 3 Zrotation Yrotation Xrotation
						JOINT Head
						{
							OFFSET 0.01902 1.88783 -0.37187
							CHANNELS 3 Zrotation Yrotation Xrotation
							End Site
							{
								OFFSET 0.00489 1.93211 -0.16169
							}
						}
					}
				}
				JOINT LeftCollar
				{
					OFFSET 0 0 0
					CHANNELS 3 Zrotation Yrotation Xrotation
					JOINT LeftShoulder
					{
						OFFSET 3.34199 1.32384 -0.07862
CHANNELS 3 Zrotation Xrotation Yrotation
						JOINT LeftElbow
						{
OFFSET 0 -5.279500 0.000000
CHANNELS 3 Zrotation Xrotation Yrotation
							JOINT LeftWrist
							{
OFFSET 0 -3.535040 0.000000
CHANNELS 3 Zrotation Xrotation Yrotation
								JOINT lhand
								{
									OFFSET 0 0 0
CHANNELS 3 Zrotation Xrotation Yrotation
									JOINT LFingers
									{
OFFSET 0 -0.667950 0.000000
CHANNELS 3 Zrotation Xrotation Yrotation
										End Site
										{
OFFSET 0 -0.538520 0.000000
										}
									}
								}
								JOINT LThumb
								{
OFFSET 0 0.000000 0.000000
CHANNELS 3 Zrotation Xrotation Yrotation
									End Site
									{
OFFSET 0 -0.546740 0.546740
									}
								}
							}
						}
					}
				}
				JOINT RightCollar
				{
					OFFSET 0 0 0
					CHANNELS 3 Zrotation Yrotation Xrotation
					JOINT RightShoulder
					{
						OFFSET -3.16149 1.45719 -0.50507
CHANNELS 3 Zrotation Xrotation Yrotation
						JOINT RightElbow
						{
OFFSET 0 -5.250350 0.000000
CHANNELS 3 Zrotation Xrotation Yrotation
							JOINT RightWrist
							{
OFFSET 0 -3.588840 0.000000
CHANNELS 3 Zrotation Xrotation Yrotation
								JOINT rhand
								{
									OFFSET 0 0 0
CHANNELS 3 Zrotation Xrotation Yrotation
									JOINT RFingers
									{
OFFSET 0 -0.779240 0.000000
CHANNELS 3 Zrotation Xrotation Yrotation
										End Site
										{
OFFSET 0 -0.628240 0.000000
										}
									}
								}
								JOINT RThumb
								{
OFFSET 0 0.000000 0.000000
CHANNELS 3 Zrotation Xrotation Yrotation
									End Site
									{
OFFSET 0 -0.637830 0.637830
									}
								}
							}
						}
					}
				}
			}
		}
	}
}
MOTION
Frames: 5
Frame Time: 0.008333333333333333
4.295909 17.724054 -7.859233 -7.156773 -26.172594 17.880506 0.000000 0.000000 0.000000 -2.473040 -12.780934 -22.411307 1.971365 8.806170 25.190852 0.784809 3.106192 -18.138817 2.240684 -9.350279 -26.897483 0.000000 0.000000 0.000000 24.521473 5.383415 -17.246374 0.000000 0.000000 0.000000 0.050059 3.998930 2.014643 -2.738635 10.259256 -29.820586 -0.001168 -1.643994 13.264739 -5.736221 -2.406615 6.051778 -5.680555 -1.174226 -1.312046 -2.626058 5.032677 -21.991541 -0.672705 9.159581 43.738810 2.181849 2.594367 21.311840 0.000000 0.000000 0.000000 5.436054 -34.137008 -81.899270 27.121713 -38.294566 9.574719 21.431747 -12.970888 -53.183392 0.000000 0.000000 0.000000 -7.125000 0.000000 0.000000 -64.729031 79.517366 54.764924 0.000000 0.000000 0.000000 -63.282692 -6.870451 53.026809 -134.857850 -50.837903 -97.651068 -8.038172 -42.331181 -2.459807 0.000000 0.000000 0.000000 7.125000 0.000000 0.000000 14.153962 27.403244 6.229218
4.290077 17.725967 -7.861767 -7.242293 -26.137401 18.022031 0.000000 0.000000 0.000000 -2.325875 -12.801809 -22.525463 1.968828 8.800838 25.174260 0.784249 3.128665 -18.145596 2.209263 -9.288976 -26.703661 0.000000 0.000000 0.000000 24.631523 5.392659 -17.345140 0.000000 0.000000 0.000000 0.051506 4.055088 2.034207 -2.710549 10.211048 -29.662934 -0.033869 -1.645007 13.231004 -5.665419 -2.406808 6.078751 -5.586984 -1.174412 -1.261587 -2.739689 5.142004 -22.110513 -0.358180 9.258734 43.946101 2.397376 2.638998 21.451199 0.000000 0.000000 0.000000 5.556929 -33.912894 -81.311716 27.397419 -38.555512 9.745847 21.007194 -11.931170 -52.480751 0.000000 0.000000 0.000000 -7.125000 0.000000 0.000000 -61.094313 79.157377 51.043033 0.000000 0.000000 0.000000 -63.433782 -6.910640 52.850361 -134.868500 -50.832700 -97.659300 -7.519490 -41.917011 -2.930881 0.000000 0.000000 0.000000 7.125000 0.000000 0.000000 14.484023 26.940369 6.547491
4.287117 17.727878 -7.862107 -7.269517 -26.011024 18.140334 0.000000 0.000000 0.000000 -2.209151 -13.011954 -22.612208 1.963472 8.789452 25.139072 0.773136 3.289917 -18.118848 2.246823 -9.362367 -26.935453 0.000000 0.000000 0.000000 24.696724 5.299535 -17.486821 0.000000 0.000000 0.000000 0.053380 4.124180 2.041051 -2.696058 10.185974 -29.580996 -0.055359 -1.687014 13.205033 -5.606959 -2.460164 6.096383 -5.504889 -1.200936 -1.231310 -2.596352 5.146467 -22.050562 -0.534817 9.272820 43.910832 2.281372 2.646160 21.438798 0.000000 0.000000 0.000000 5.787042 -33.686343 -80.949637 27.867525 -38.993921 10.040203 22.182154 -10.984365 -52.336537 0.000000 0.000000 0.000000 -7.125000 0.000000 0.000000 -59.964758 79.601027 50.448914 0.000000 0.000000 0.000000 -63.559976 -6.974731 52.680152 -134.921410 -50.806981 -97.700332 -6.716439 -41.465024 -3.374636 0.000000 0.000000 0.000000 7.125000 0.000000 0.000000 15.026496 26.505176 6.967972
4.285279 17.729132 -7.860643 -7.222953 -25.939697 18.188026 0.000000 0.000000 0.000000 -2.188074 -13.273386 -22.587850 1.953810 8.769217 25.076033 0.767835 3.464362 -18.161628 2.253722 -9.375657 -26.977749 0.000000 0.000000 0.000000 24.680987 5.218550 -17.584724 0.000000 0.000000 0.000000 0.054102 4.148213 2.018552 -2.685143 10.167033 -29.519237 -0.041634 -1.728079 13.182131 -5.632302 -2.511048 6.137177 -5.533672 -1.224922 -1.182543 -2.491515 5.180682 -21.997352 -0.667388 9.333401 43.880382 2.205906 2.669676 21.422797 0.000000 0.000000 0.000000 5.925173 -33.885698 -81.276330 27.967204 -39.086046 10.103009 21.718028 -12.479168 -52.178301 0.000000 0.000000 0.000000 -7.125000 0.000000 0.000000 -59.320433 79.355770 49.621946 0.000000 0.000000 0.000000 -63.874277 -6.990216 53.003515 -135.253322 -50.643551 -97.957231 -6.457234 -40.836369 -3.679075 0.000000 0.000000 0.000000 7.125000 0.000000 0.000000 15.180539 26.208773 7.153923
4.280133 17.730834 -7.860816 -7.222399 -26.013732 18.203199 0.000000 0.000000 0.000000 -2.196572 -13.212499 -22.552128 1.945599 8.751849 25.021962 0.764233 3.501482 -18.145094 2.253733 -9.375798 -26.978029 0.000000 0.000000 0.000000 24.687216 5.261374 -17.571344 0.000000 0.000000 0.000000 0.055517 4.196173 1.982357 -2.723129 10.232705 -29.733671 -0.095734 -1.692988 13.195605 -5.654364 -2.471636 6.170722 -5.532423 -1.205560 -1.149395 -2.572015 5.233939 -21.934025 -0.603228 9.417455 43.842829 2.267504 2.701019 21.359306 0.000000 0.000000 0.000000 5.934294 -33.875396 -81.058715 27.890922 -39.015604 10.054897 20.700054 -12.068843 -51.544847 0.000000 0.000000 0.000000 -7.125000 0.000000 0.000000 -56.629531 78.697880 46.564088 0.000000 0.000000 0.000000 -64.136151 -6.933621 53.534235 -135.744546 -50.398485 -98.336406 -7.007997 -40.883983 -3.780726 0.000000 0.000000 0.000000 7.125000 0.000000 0.000000 14.761037 26.110276 6.978306
